# xmcd
#
# Track frame offsets:
#	150
#	15595
#	31031
#	47749
#	61069
#	76188
#	90973
#	106110
#	118057
#	132533
#	147586
#	162301
#	177639
#	194420
#	206460
#	218066
#	232396
#	245479
#	258246
#	270748
#	285568
#	298777
#
# Disc length: 4199 seconds
#
# Revision: 0
# Processed by: cddbd v1.5.2PL0 Copyright (c) Steve Scherf et al.
# Submitted via: EasyCDDAExtractor 2010.6.0.0
#
DISCID=44106516
DTITLE=Los Mier - Recordando Nuestras Canciones
DYEAR=2000
DGENRE=Latin
TTITLE0=Muñeca Ojos de Miel
TTITLE1=Si se Hubiera Casado Conmigo
TTITLE2=Amame
TTITLE3=No Quiero Limosna
TTITLE4=El Cienpies
TTITLE5=Al Mismo Nivel
TTITLE6=Sigo Pensando en Ti
TTITLE7=Cachito de Luna
TTITLE8=La Trampa
TTITLE9=Me Acostumbre a Ti
TTITLE10=La Serenata
TTITLE11=La Coloreteada
TTITLE12=A Que Si Te Acuerdas
TTITLE13=La Paloma
TTITLE14=Corazón Seco
TTITLE15=Notas de Sociedad
TTITLE16=Con El Agua Hasta El Cuello
TTITLE17=Dulcemente Enamorada
TTITLE18=Corazón
TTITLE19=Hablemos
TTITLE20=Te Amo
TTITLE21=Confesiones
EXTD=
EXTT0=
EXTT1=
EXTT2=
EXTT3=
EXTT4=
EXTT5=
EXTT6=
EXTT7=
EXTT8=
EXTT9=
EXTT10=
EXTT11=
EXTT12=
EXTT13=
EXTT14=
EXTT15=
EXTT16=
EXTT17=
EXTT18=
EXTT19=
EXTT20=
EXTT21=
PLAYORDER=
